<svg width="29" height="29" viewBox="0 0 29 29" fill="none" xmlns="http://www.w3.org/2000/svg">
<path fill-rule="evenodd" clip-rule="evenodd" d="M0 14.0004C0.000481898 7.32136 4.71889 1.57278 11.2697 0.270208C17.8204 -1.03236 24.3791 2.47385 26.9346 8.64461C29.4902 14.8154 27.3309 21.9321 21.7773 25.6424C16.2237 29.3527 8.82253 28.6234 4.1 23.9004C1.47455 21.2747 -0.000267907 17.7135 0 14.0004Z" fill="#707070"/>
<path d="M8.21977 18.7181C7.92682 19.0109 7.92673 19.4858 8.21957 19.7788C8.51241 20.0717 8.98728 20.0718 9.28023 19.779L8.21977 18.7181ZM14.5302 14.531C14.8232 14.2381 14.8233 13.7633 14.5304 13.4703C14.2376 13.1774 13.7627 13.1773 13.4698 13.4701L14.5302 14.531ZM13.4695 13.4704C13.1767 13.7634 13.1769 14.2383 13.4699 14.5311C13.7629 14.8239 14.2378 14.8237 14.5305 14.5307L13.4695 13.4704ZM19.7785 9.27866C20.0713 8.98566 20.0711 8.51078 19.7781 8.218C19.4851 7.92522 19.0103 7.9254 18.7175 8.21841L19.7785 9.27866ZM14.5302 13.4701C14.2373 13.1773 13.7624 13.1774 13.4696 13.4703C13.1767 13.7633 13.1768 14.2381 13.4698 14.531L14.5302 13.4701ZM18.7198 19.779C19.0127 20.0718 19.4876 20.0717 19.7804 19.7788C20.0733 19.4858 20.0732 19.0109 19.7802 18.7181L18.7198 19.779ZM13.4696 14.5308C13.7624 14.8237 14.2373 14.8238 14.5302 14.531C14.8232 14.2381 14.8233 13.7633 14.5304 13.4703L13.4696 14.5308ZM9.28043 8.21831C8.98759 7.92536 8.51272 7.92527 8.21977 8.2181C7.92682 8.51094 7.92673 8.98582 8.21957 9.27876L9.28043 8.21831ZM9.28023 19.779L14.5302 14.531L13.4698 13.4701L8.21977 18.7181L9.28023 19.779ZM14.5305 14.5307L19.7785 9.27866L18.7175 8.21841L13.4695 13.4704L14.5305 14.5307ZM13.4698 14.531L18.7198 19.779L19.7802 18.7181L14.5302 13.4701L13.4698 14.531ZM14.5304 13.4703L9.28043 8.21831L8.21957 9.27876L13.4696 14.5308L14.5304 13.4703Z" fill="white"/>
</svg>
