<svg width="12" height="13" viewBox="0 0 12 13" fill="none" xmlns="http://www.w3.org/2000/svg">
<path d="M0.219771 11.7181C-0.0731781 12.0109 -0.0732685 12.4858 0.219569 12.7788C0.512406 13.0717 0.98728 13.0718 1.28023 12.779L0.219771 11.7181ZM6.53023 7.53097C6.82318 7.23813 6.82327 6.76326 6.53043 6.47031C6.23759 6.17736 5.76272 6.17727 5.46977 6.4701L6.53023 7.53097ZM5.46947 6.47041C5.17669 6.76341 5.17687 7.23829 5.46987 7.53107C5.76288 7.82385 6.23775 7.82367 6.53053 7.53066L5.46947 6.47041ZM11.7785 2.27866C12.0713 1.98566 12.0711 1.51078 11.7781 1.218C11.4851 0.925221 11.0103 0.925402 10.7175 1.21841L11.7785 2.27866ZM6.53023 6.4701C6.23728 6.17727 5.76241 6.17736 5.46957 6.47031C5.17673 6.76326 5.17682 7.23813 5.46977 7.53097L6.53023 6.4701ZM10.7198 12.779C11.0127 13.0718 11.4876 13.0717 11.7804 12.7788C12.0733 12.4858 12.0732 12.0109 11.7802 11.7181L10.7198 12.779ZM5.46957 7.53077C5.76241 7.82371 6.23728 7.8238 6.53023 7.53097C6.82318 7.23813 6.82327 6.76326 6.53043 6.47031L5.46957 7.53077ZM1.28043 1.21831C0.987594 0.925357 0.51272 0.925267 0.219771 1.2181C-0.0731781 1.51094 -0.0732685 1.98582 0.219569 2.27876L1.28043 1.21831ZM1.28023 12.779L6.53023 7.53097L5.46977 6.4701L0.219771 11.7181L1.28023 12.779ZM6.53053 7.53066L11.7785 2.27866L10.7175 1.21841L5.46947 6.47041L6.53053 7.53066ZM5.46977 7.53097L10.7198 12.779L11.7802 11.7181L6.53023 6.4701L5.46977 7.53097ZM6.53043 6.47031L1.28043 1.21831L0.219569 2.27876L5.46957 7.53077L6.53043 6.47031Z" fill="white"/>
</svg>
